<?xml version="1.0" encoding="UTF-8" standalone="no"?>
<svg
   xmlns:dc="http://purl.org/dc/elements/1.1/"
   xmlns:cc="http://creativecommons.org/ns#"
   xmlns:rdf="http://www.w3.org/1999/02/22-rdf-syntax-ns#"
   xmlns:svg="http://www.w3.org/2000/svg"
   xmlns="http://www.w3.org/2000/svg"
   width="126.73543mm"
   height="32.014576mm"
   viewBox="0 0 126.73543 32.014576"
   version="1.1"
   id="svg8">
  <defs
     id="defs2" />
  <metadata
     id="metadata5">
    <rdf:RDF>
      <cc:Work
         rdf:about="">
        <dc:format>image/svg+xml</dc:format>
        <dc:type
           rdf:resource="http://purl.org/dc/dcmitype/StillImage" />
        <dc:title></dc:title>
      </cc:Work>
    </rdf:RDF>
  </metadata>
  <g
     id="layer1"
     transform="translate(-20.932993,-88.762364)">
    <path
       style="fill:#040404;stroke:none;stroke-width:0.264583"
       d="M 147.66842,120.77694 V 88.762364 m -115.09376,2.91042 -2.645833,8.731246 c 2.936557,-2.565456 6.421755,-7.039526 10.054167,-8.504236 1.439598,-0.58048 3.498056,-0.22701 5.027083,-0.22701 h 10.318751 c -0.303742,1.31286 -0.868627,4.78599 -2.190221,5.3966 -3.992827,1.84491 -9.832975,-1.2732 -13.949363,0.38666 -3.224874,1.30037 -6.730815,6.046756 -2.352675,8.496876 1.638855,0.91715 5.003694,0.27194 6.850592,0.27194 h 6.879167 l -1.5875,5.29167 H 37.072577 c -1.23788,0 -3.635322,0.45548 -4.627563,-0.42424 -1.666584,-1.47756 -2.546138,-6.67826 -3.045354,-8.83618 h -0.264583 l -2.025624,6.61458 -1.260237,2.48619 -4.916223,0.15965 4.423807,-14.287496 2.061131,-5.28431 5.156729,-0.27194 m 73.81876,0 -3.175,10.847906 c 2.02882,-1.54022 3.96557,-4.111006 6.35,-5.064836 3.14298,-1.25724 8.52461,-0.22682 11.90625,-0.22682 l -1.05834,3.439576 c -3.92271,0 -8.14652,-0.814306 -11.37708,1.67997 -1.7018,1.31398 -3.72666,3.34431 -1.24936,5.30413 1.89865,1.5022 7.8613,0.42423 10.24519,0.42423 -0.31062,0.91853 -0.62653,2.58488 -1.45785,3.16765 -0.75565,0.52969 -2.1672,0.27194 -3.04006,0.27194 -2.2524,0 -7.52687,0.982 -9.41414,-0.27194 -1.23349,-0.81955 -1.63804,-3.69628 -2.22753,-5.01973 l -1.987024,5.01973 -3.833813,0.27194 4.725727,-14.552086 2.0238,-5.01972 3.56923,-0.27194 M 71.732995,111.51653 H 57.710078 c -1.556808,0 -4.326202,0.53591 -5.736696,-0.15965 -0.821531,-0.40505 -0.542396,-1.51771 -0.375444,-2.2216 0.396611,-1.67138 1.010973,-5.03878 2.467504,-6.08296 1.075267,-0.7711 2.663561,-0.53163 3.909219,-0.53163 h 8.202084 c 1.053571,0 2.973388,0.36108 3.879586,-0.27172 1.949185,-1.36142 -2.271713,-1.58036 -2.821252,-1.58036 H 54.535078 c 0.139435,-0.944396 0.346604,-2.573066 1.193271,-3.167636 0.897202,-0.63006 2.788179,-0.27194 3.833813,-0.27194 h 10.054167 c 1.219994,0 5.0038,-0.62236 5.812367,0.42423 0.725223,0.93858 -0.300832,2.854166 -0.595577,3.809096 -1.017588,3.29644 -2.596621,6.6316 -3.100124,10.05417 M 98.720497,97.229034 c -0.139436,0.9444 -0.346604,2.57307 -1.193271,3.167636 -0.8509,0.59748 -2.580481,0.27194 -3.569229,0.27194 h -8.731251 c -1.122362,0 -2.658533,-0.25747 -3.675592,0.31194 -1.163108,0.65117 -3.394869,6.21512 -1.830916,6.93674 2.067454,0.95407 6.144683,0.15965 8.416925,0.15965 h 7.14375 l -1.433777,3.27994 -4.387056,0.15965 H 78.876746 l -4.601898,-0.27194 -0.06853,-2.10931 1.848114,-5.82084 2.352675,-5.624426 5.761303,-0.46098 h 14.552084 m 28.575006,0 c -0.36301,2.4579 -1.41631,4.801496 -2.20477,7.143746 -0.26908,0.79941 -0.92975,2.01313 -0.72443,2.87123 0.25585,1.06982 1.85155,0.83256 2.66462,0.83293 2.01374,9e-4 7.84436,0.99132 9.33926,-0.42423 2.40797,-2.28023 1.20862,-8.199806 3.81106,-10.151736 0.85275,-0.63961 2.76542,-0.27194 3.78301,-0.27194 -0.71437,4.837026 -3.04297,9.626306 -4.4913,14.287496 -0.49715,1.60012 -0.78132,4.36827 -2.40242,5.2443 -1.21391,0.65617 -3.14669,0.31195 -4.48336,0.31195 h -10.31875 l 0.79375,-3.43959 c 3.05144,0 11.2141,1.5157 12.17083,-2.11666 h -11.64167 l -4.06982,-0.42424 0.36566,-3.27993 2.46935,-7.40833 1.12607,-2.903056 3.81291,-0.27194 m -58.208341,8.995826 h -5.027081 -3.439583 c -0.479425,0 -5.869517,0.0364 -4.062148,1.58118 0.69215,0.5915 2.420937,0.2709 3.268398,0.2709 2.475442,0 8.760884,1.25601 9.260417,-1.85208 m 17.197918,7.40833 c -0.776023,3.35386 -1.814248,3.43959 -5.027084,3.43959 0.776023,-3.35386 1.814248,-3.43959 5.027084,-3.43959 m 12.435417,0 -1.058334,3.43959 h -10.31875 l 0.79375,-3.43959 h 10.583334 m 22.489583,0 -1.05833,3.43959 H 99.514247 l 1.230843,-3.16765 5.64833,-0.27194 z"
       id="path4260" />
  </g>
</svg>
